<svg width="45" height="17" viewBox="0 0 45 17" fill="none" xmlns="http://www.w3.org/2000/svg">
<g id="Group 1712">
<path id="Vector" d="M26.9895 3.72516C25.8085 2.54415 24.4064 1.60728 22.8634 0.968122C21.3203 0.328964 19.6664 0 17.9962 0C16.326 0 14.6722 0.328964 13.1291 0.968122C11.586 1.60728 10.1839 2.54415 9.00293 3.72516L17.9962 12.7184L26.9895 3.72516Z" fill="#FFD200"/>
<path id="Vector_2" d="M18.0117 12.73C19.1927 13.9111 20.5948 14.8479 22.1379 15.487C23.6809 16.1262 25.3348 16.4552 27.005 16.4552C28.6751 16.4552 30.3292 16.1262 31.8722 15.487C33.4152 14.8479 34.8174 13.9111 35.9984 12.73L27.005 3.73676L18.0117 12.73Z" fill="#06E07F"/>
<path id="Vector_3" d="M17.9866 12.7286C16.8056 13.9096 15.4035 14.8464 13.8604 15.4856C12.3173 16.1247 10.6635 16.4537 8.99329 16.4537C7.32306 16.4537 5.66924 16.1247 4.12615 15.4856C2.58311 14.8464 1.18102 13.9096 0 12.7286L8.99329 3.73529L17.9866 12.7286Z" fill="#E3073C"/>
<path id="Vector_4" d="M27.0137 3.72659C28.1946 2.54557 29.5968 1.60875 31.1398 0.969587C32.6828 0.330429 34.3369 0.00146484 36.0069 0.00146484C37.6773 0.00146484 39.331 0.330429 40.874 0.969587C42.417 1.60875 43.8192 2.54557 45.0001 3.72659L36.0069 12.7199L27.0137 3.72659Z" fill="#1F84EF"/>
</g>
</svg>
