<svg width="12" height="12" viewBox="0 0 12 12" fill="none" xmlns="http://www.w3.org/2000/svg">
<path d="M8.41846 2.90479L8.55469 4.93066H8.41846C8.23682 4.32422 7.97754 3.8877 7.64062 3.62109C7.30371 3.35449 6.89941 3.22119 6.42773 3.22119C6.03223 3.22119 5.6748 3.32227 5.35547 3.52441C5.03613 3.72363 4.78418 4.04297 4.59961 4.48242C4.41797 4.92188 4.32715 5.46826 4.32715 6.12158C4.32715 6.66064 4.41357 7.12793 4.58643 7.52344C4.75928 7.91895 5.01855 8.22217 5.36426 8.43311C5.71289 8.64404 6.10986 8.74951 6.55518 8.74951C6.94189 8.74951 7.2832 8.66748 7.5791 8.50342C7.875 8.33643 8.2002 8.00684 8.55469 7.51465L8.69092 7.60254C8.39209 8.13281 8.04346 8.521 7.64502 8.76709C7.24658 9.01318 6.77344 9.13623 6.22559 9.13623C5.23828 9.13623 4.47363 8.77002 3.93164 8.0376C3.52734 7.49268 3.3252 6.85107 3.3252 6.11279C3.3252 5.51807 3.4585 4.97168 3.7251 4.47363C3.9917 3.97559 4.35791 3.59033 4.82373 3.31787C5.29248 3.04248 5.80371 2.90479 6.35742 2.90479C6.78809 2.90479 7.21289 3.01025 7.63184 3.22119C7.75488 3.28564 7.84277 3.31787 7.89551 3.31787C7.97461 3.31787 8.04346 3.29004 8.10205 3.23438C8.17822 3.15527 8.23242 3.04541 8.26465 2.90479H8.41846Z" fill="black"/>
<circle cx="6" cy="6" r="5" stroke="black" stroke-width="0.7"/>
</svg>
